<svg width="20" height="20" viewBox="0 0 20 20" fill="none" xmlns="http://www.w3.org/2000/svg">
<path d="M17.8401 13.0004L16.0201 11.7004C16.3201 10.6204 16.3401 9.45043 16.0201 8.28043L17.8401 7.00043L16.3901 4.50043L14.3601 5.42043C13.5701 4.62043 12.5701 4.00043 11.4001 3.71043L11.2001 1.50043H8.30008L8.10008 3.71043C6.93008 4.00043 5.93008 4.62043 5.14008 5.42043L3.11008 4.50043L1.66008 7.00043L3.48008 8.28043C3.16008 9.45043 3.18008 10.6204 3.48008 11.7004L1.66008 13.0004L3.11008 15.5004L5.14008 14.5704C5.93008 15.3604 6.93008 15.9604 8.10008 16.2704L8.30008 18.5004H11.2001L11.4001 16.2704C12.5701 15.9604 13.5701 15.3604 14.3601 14.5704L16.3901 15.5004L17.8401 13.0004ZM11.7501 0.500427C12.0201 0.500427 12.2501 0.700427 12.2501 0.960427L12.4301 3.00043C13.1901 3.28043 13.8701 3.69043 14.4801 4.18043L16.3301 3.31043C16.5601 3.19043 16.8501 3.27043 16.9901 3.50043L18.9901 7.00043C19.1301 7.21043 19.0501 7.50043 18.8301 7.65043L17.1601 8.82043C17.2901 9.62043 17.2801 10.4104 17.1601 11.1804L18.8301 12.3504C19.0501 12.5004 19.1301 12.7904 18.9901 13.0004L16.9901 16.5004C16.8501 16.7104 16.5601 16.7904 16.3301 16.6704L14.4801 15.8104C13.8701 16.3004 13.1901 16.7004 12.4301 17.0004L12.2501 19.0004C12.2501 19.2904 12.0201 19.5004 11.7501 19.5004H7.75008C7.61747 19.5004 7.49029 19.4478 7.39652 19.354C7.30276 19.2602 7.25008 19.133 7.25008 19.0004L7.07008 17.0004C6.31008 16.7004 5.63008 16.3004 5.02008 15.8104L3.17008 16.6704C2.94008 16.7904 2.65008 16.7104 2.51008 16.5004L0.510078 13.0004C0.370078 12.7904 0.450079 12.5004 0.670079 12.3504L2.34008 11.1804C2.22008 10.4104 2.21008 9.62043 2.34008 8.82043L0.670079 7.65043C0.450079 7.50043 0.370078 7.21043 0.510078 7.00043L2.51008 3.50043C2.65008 3.27043 2.94008 3.19043 3.17008 3.31043L5.02008 4.18043C5.63008 3.69043 6.31008 3.28043 7.07008 3.00043L7.25008 0.960427C7.25008 0.700427 7.48008 0.500427 7.75008 0.500427H11.7501ZM9.75008 6.50043C10.6783 6.50043 11.5686 6.86918 12.225 7.52555C12.8813 8.18193 13.2501 9.07217 13.2501 10.0004C13.2501 10.9287 12.8813 11.8189 12.225 12.4753C11.5686 13.1317 10.6783 13.5004 9.75008 13.5004C8.82182 13.5004 7.93158 13.1317 7.27521 12.4753C6.61883 11.8189 6.25008 10.9287 6.25008 10.0004C6.25008 9.07217 6.61883 8.18193 7.27521 7.52555C7.93158 6.86918 8.82182 6.50043 9.75008 6.50043ZM9.75008 7.50043C9.08704 7.50043 8.45115 7.76382 7.98231 8.23266C7.51347 8.7015 7.25008 9.33739 7.25008 10.0004C7.25008 10.6635 7.51347 11.2994 7.98231 11.7682C8.45115 12.237 9.08704 12.5004 9.75008 12.5004C10.4131 12.5004 11.049 12.237 11.5178 11.7682C11.9867 11.2994 12.2501 10.6635 12.2501 10.0004C12.2501 9.33739 11.9867 8.7015 11.5178 8.23266C11.049 7.76382 10.4131 7.50043 9.75008 7.50043Z" fill="black"/>
</svg>
