<svg width="16" height="16" viewBox="0 0 16 16" fill="none" xmlns="http://www.w3.org/2000/svg">
<path d="M2.74021 5.59905H4.06181V6.92065C4.06181 6.95523 4.09639 6.98212 4.13865 6.98212H5.06069C5.10295 6.98212 5.13753 6.95523 5.13753 6.91873V5.59905H6.45913C6.49371 5.59905 6.5206 5.56447 6.5206 5.52221V4.60016C6.5206 4.5579 6.49371 4.52332 6.45721 4.52332H5.13753V3.20172C5.13753 3.16715 5.10295 3.14025 5.06069 3.14025H4.13865C4.09639 3.14025 4.06181 3.16715 4.06181 3.20172V4.52332H2.74021C2.70563 4.52332 2.67874 4.5579 2.67874 4.60016V5.52221C2.67874 5.56447 2.70563 5.59905 2.74021 5.59905ZM9.04087 5.59905H12.7598C12.7944 5.59905 12.8213 5.56447 12.8213 5.52221V4.60016C12.8213 4.5579 12.7944 4.52332 12.7579 4.52332H9.04087C9.00629 4.52332 8.9794 4.5579 8.9794 4.60016V5.52221C8.9794 5.56447 9.00629 5.59905 9.04087 5.59905ZM9.04087 10.6895H12.7598C12.7944 10.6895 12.8213 10.6549 12.8213 10.6127V9.69063C12.8213 9.64837 12.7944 9.6138 12.7579 9.6138H9.04087C9.00629 9.6138 8.9794 9.64837 8.9794 9.69063V10.6127C8.9794 10.6549 9.00629 10.6895 9.04087 10.6895ZM9.04087 12.6873H12.7598C12.7944 12.6873 12.8213 12.6527 12.8213 12.6105V11.6884C12.8213 11.6461 12.7944 11.6116 12.7579 11.6116H9.04087C9.00629 11.6116 8.9794 11.6461 8.9794 11.6884V12.6105C8.9794 12.6527 9.00629 12.6873 9.04087 12.6873ZM5.2816 11.1313L6.45721 9.69255C6.53981 9.59267 6.47066 9.44091 6.34388 9.44091H5.36804C5.32386 9.44091 5.2816 9.46012 5.25471 9.49662L4.60159 10.2957L3.94847 9.49662C3.93473 9.47969 3.91748 9.46595 3.89792 9.45633C3.87835 9.44671 3.85693 9.44145 3.83514 9.44091H2.85738C2.7306 9.44091 2.66145 9.59267 2.74405 9.69255L3.91966 11.1313L2.71523 12.6066C2.63071 12.7065 2.69987 12.8583 2.82665 12.8583H3.80248C3.84666 12.8583 3.88892 12.839 3.91582 12.8025L4.59775 11.9669L5.27968 12.8025C5.30849 12.8371 5.35075 12.8583 5.39301 12.8583H6.36885C6.49563 12.8583 6.56478 12.7065 6.48218 12.6066L5.2816 11.1313ZM14.819 0.316483H0.680967C0.340962 0.316483 0.0662689 0.591176 0.0662689 0.931181V15.0692C0.0662689 15.4093 0.340962 15.6839 0.680967 15.6839H14.819C15.159 15.6839 15.4337 15.4093 15.4337 15.0692V0.931181C15.4337 0.591176 15.159 0.316483 14.819 0.316483ZM14.1275 14.3777H1.3725V1.62272H14.1275V14.3777Z" fill="black"/>
</svg>
