<svg width="50" height="61" viewBox="0 0 50 61" fill="none" xmlns="http://www.w3.org/2000/svg">
<path d="M20.4171 40.0048L20.4021 39.9698C20.1003 39.8985 19.8002 39.8201 19.5021 39.7348L19.4796 39.7273C16.6277 38.9075 13.994 37.4634 11.7694 35.4997C9.32277 33.3414 7.44129 30.6174 6.28898 27.5652C5.13667 24.5129 4.74852 21.2251 5.15837 17.9884C5.56822 14.7518 6.76363 11.6645 8.64037 8.99583C10.5171 6.32715 13.0182 4.15808 15.9255 2.67776C18.8329 1.19744 22.0582 0.450818 25.3203 0.502985C28.5824 0.555152 31.7822 1.40453 34.6407 2.97705C37.4993 4.54958 39.9297 6.79751 41.7202 9.52484C43.5106 12.2522 44.6067 15.3761 44.9128 18.6242C45.0103 19.6567 44.1628 20.4993 43.1253 20.4993C42.0903 20.4993 41.2627 19.6567 41.1427 18.6267C40.8122 15.7848 39.7373 13.0806 38.0266 10.7874C36.3159 8.49412 34.0302 6.69315 31.4003 5.56652C28.7705 4.43988 25.8898 4.02751 23.0495 4.3711C20.2092 4.71468 17.5099 5.80204 15.2246 7.52325C12.9392 9.24447 11.1488 11.5385 10.0343 14.1735C8.91978 16.8085 8.52068 19.6911 8.87733 22.5298C9.23399 25.3685 10.3338 28.0627 12.0655 30.3401C13.7972 32.6175 16.0995 34.3973 18.7396 35.4997L18.8396 35.5422C19.3396 35.7472 19.8529 35.928 20.3796 36.0847C20.8221 35.0154 21.6218 34.1328 22.6423 33.5872C23.6628 33.0416 24.841 32.8669 25.976 33.0928C27.1109 33.3187 28.1323 33.9313 28.8661 34.8261C29.5999 35.7209 30.0006 36.8426 29.9999 37.9998C30.001 39.1489 29.6063 40.2633 28.8821 41.1556C28.158 42.0478 27.1486 42.6634 26.0238 42.8988C24.899 43.1341 23.7275 42.9748 22.7064 42.4478C21.6852 41.9207 20.8768 41.058 20.4171 40.0048ZM17.952 43.1849C13.5108 41.8037 9.57279 39.1488 6.62672 35.5497C4.80095 35.7635 3.11729 36.6404 1.89548 38.0139C0.67367 39.3873 -0.0012028 41.1617 -0.000976506 42.9999V44.7875C-0.000976506 54.0827 10.5243 60.5004 24.9998 60.5004C39.4752 60.5004 50.0005 53.7302 50.0005 44.7875V42.9999C50.0005 41.0107 49.2103 39.103 47.8037 37.6965C46.3972 36.2899 44.4894 35.4997 42.5003 35.4997H33.3875C33.9772 37.4748 33.8507 39.5948 33.0303 41.4858C32.2099 43.3768 30.7483 44.9174 28.903 45.8362C27.0578 46.7549 24.9475 46.9927 22.944 46.5077C20.9406 46.0226 19.1727 44.8459 17.952 43.1849ZM37.5001 20.4993C37.5001 16.7191 35.8251 13.3315 33.1725 11.039C31.8416 9.89085 30.2835 9.03631 28.5999 8.53115C26.9164 8.02599 25.1452 7.88155 23.4021 8.10727C21.6589 8.333 19.9829 8.9238 18.4836 9.84112C16.9842 10.7584 15.6952 11.9817 14.7006 13.4309C13.706 14.8802 13.0283 16.5229 12.7115 18.2518C12.3948 19.9808 12.4463 21.7571 12.8626 23.4648C13.2789 25.1725 14.0507 26.7732 15.1275 28.1624C16.2044 29.5516 17.5621 30.6981 19.1121 31.5271C20.7229 30.0617 22.8222 29.2496 24.9998 29.2495C27.1782 29.249 29.2785 30.0612 30.8899 31.5271C32.8873 30.46 34.5573 28.8705 35.7215 26.9282C36.8858 24.9859 37.5005 22.7638 37.5001 20.4993Z" fill="black"/>
</svg>
