<svg width="16" height="16" viewBox="0 0 16 16" fill="none" xmlns="http://www.w3.org/2000/svg">
<path id="Vector" d="M0.561279 15.4392L5.32207 5.3225L15.4388 0.561707L10.678 10.6784L0.561279 15.4392ZM8.00002 6.66147C7.6449 6.66147 7.30432 6.80254 7.05322 7.05365C6.80211 7.30475 6.66104 7.64532 6.66104 8.00044C6.66104 8.35556 6.80211 8.69613 7.05322 8.94724C7.30432 9.19835 7.6449 9.33941 8.00002 9.33941C8.35513 9.33941 8.69571 9.19835 8.94681 8.94724C9.19792 8.69613 9.33899 8.35556 9.33899 8.00044C9.33899 7.64532 9.19792 7.30475 8.94681 7.05365C8.69571 6.80254 8.35513 6.66147 8.00002 6.66147Z" fill="white"/>
</svg>
