<svg width="13" height="9" viewBox="0 0 13 9" fill="none" xmlns="http://www.w3.org/2000/svg">
<path d="M3.48523 8.50043C2.76575 8.50043 2.15189 8.32221 1.64364 7.96577C1.13539 7.60934 0.745952 7.13079 0.475325 6.53013C0.211299 5.92287 0.0858862 5.2463 0.0990875 4.50043C0.112289 3.77435 0.257503 3.11099 0.534731 2.51033C0.818559 1.90307 1.2146 1.41792 1.72285 1.05488C2.2377 0.685246 2.84826 0.500427 3.55453 0.500427C4.32681 0.500427 4.99678 0.738051 5.56443 1.2133C6.13209 1.68855 6.55783 2.45422 6.84166 3.51033H6.2674C6.47202 2.80406 6.73935 2.2298 7.06938 1.78756C7.39942 1.34531 7.77565 1.02188 8.1981 0.817259C8.62054 0.606038 9.07268 0.500427 9.55453 0.500427C10.2146 0.500427 10.8021 0.665444 11.3169 0.995477C11.8384 1.31891 12.2476 1.77766 12.5446 2.37171C12.8483 2.95917 13.0001 3.64894 13.0001 4.44102C13.0001 5.2067 12.8582 5.89647 12.5743 6.51033C12.2905 7.12419 11.8912 7.60934 11.3763 7.96577C10.8615 8.32221 10.2542 8.50043 9.55453 8.50043C9.06608 8.50043 8.61064 8.40142 8.1882 8.2034C7.76575 8.00538 7.38952 7.68855 7.05948 7.2529C6.73605 6.81066 6.47202 6.2265 6.2674 5.50043H6.84166C6.63044 6.2265 6.35321 6.81066 6.00998 7.2529C5.67334 7.68855 5.28721 8.00538 4.85156 8.2034C4.42252 8.40142 3.96707 8.50043 3.48523 8.50043ZM3.58424 6.59944C4.04628 6.59944 4.47202 6.43112 4.86146 6.09449C5.2509 5.75125 5.62054 5.2199 5.97037 4.50043C5.62054 3.78096 5.2509 3.2529 4.86146 2.91627C4.47202 2.57964 4.04628 2.41132 3.58424 2.41132C3.208 2.41132 2.88787 2.50373 2.62384 2.68855C2.36641 2.87336 2.16839 3.12419 2.02978 3.44102C1.89117 3.75785 1.82186 4.11099 1.82186 4.50043C1.82186 4.89647 1.89117 5.2529 2.02978 5.56973C2.16839 5.87997 2.36641 6.13079 2.62384 6.32221C2.88787 6.50703 3.208 6.59944 3.58424 6.59944ZM9.52483 6.59944C9.90107 6.59944 10.2212 6.50703 10.4852 6.32221C10.7493 6.13079 10.9473 5.87997 11.0793 5.56973C11.2179 5.2529 11.2872 4.89647 11.2872 4.50043C11.2872 4.11099 11.2179 3.75785 11.0793 3.44102C10.9473 3.12419 10.7493 2.87336 10.4852 2.68855C10.2212 2.50373 9.90107 2.41132 9.52483 2.41132C9.06278 2.41132 8.63704 2.57964 8.2476 2.91627C7.86476 3.2529 7.49513 3.78096 7.13869 4.50043C7.49513 5.2199 7.86476 5.75125 8.2476 6.09449C8.63704 6.43112 9.06278 6.59944 9.52483 6.59944Z" fill="black"/>
</svg>
