<svg width="34" height="40" viewBox="0 0 34 40" fill="none" xmlns="http://www.w3.org/2000/svg">
<path id="Vector" d="M24.6576 22.5982C26.2938 21.3119 27.6163 19.6707 28.5252 17.7984C29.4341 15.9261 29.9057 13.8718 29.9043 11.7906H33.8343C33.8361 14.5618 33.1858 17.2946 31.9361 19.7681C30.6864 22.2416 28.8723 24.3864 26.6404 26.0291L31.606 34.632C32.1271 35.5346 32.2683 36.6073 31.9986 37.6141C31.7288 38.6209 31.0702 39.4793 30.1676 40.0004L23.2369 27.9981C21.0015 28.9742 18.5883 29.4773 16.1491 29.4758C13.7099 29.4773 11.2967 28.9742 9.06126 27.9981L2.13063 40.0004C1.228 39.4793 0.56937 38.6209 0.299621 37.6141C0.0298708 36.6073 0.171095 35.5346 0.692228 34.632L10.6431 17.3987C9.65069 16.4231 8.93495 15.2016 8.56896 13.8589C8.20297 12.5163 8.19984 11.1005 8.55989 9.75624C8.91993 8.41196 9.63026 7.18731 10.6183 6.2073C11.6064 5.2273 12.8369 4.52706 14.1841 4.17807V0.000427246H18.1141V4.17807C19.4615 4.5268 20.6921 5.22686 21.6804 6.20676C22.6688 7.18665 23.3793 8.41128 23.7396 9.75559C24.0998 11.0999 24.0969 12.5157 23.731 13.8585C23.3651 15.2013 22.6495 16.423 21.6571 17.3987L24.6576 22.5982ZM21.2582 24.5652L18.2556 19.3657C16.8787 19.7484 15.4235 19.7484 14.0465 19.3657L11.044 24.5652C12.6685 25.2138 14.4018 25.5466 16.1511 25.5457C17.9003 25.5466 19.6336 25.2138 21.2582 24.5652ZM16.1491 15.7206C17.1914 15.7206 18.191 15.3066 18.9281 14.5695C19.6651 13.8325 20.0791 12.8329 20.0791 11.7906C20.0791 10.7483 19.6651 9.74863 18.9281 9.0116C18.191 8.27458 17.1914 7.86052 16.1491 7.86052C15.1068 7.86052 14.1072 8.27458 13.3701 9.0116C12.6331 9.74863 12.2191 10.7483 12.2191 11.7906C12.2191 12.8329 12.6331 13.8325 13.3701 14.5695C14.1072 15.3066 15.1068 15.7206 16.1491 15.7206Z" fill="white"/>
</svg>
