<svg width="18" height="20" viewBox="0 0 18 20" fill="none" xmlns="http://www.w3.org/2000/svg">
<path d="M12.8289 11.3012C13.6469 10.6581 14.3082 9.83745 14.7626 8.90131C15.2171 7.96517 15.4529 6.938 15.4522 5.89739H17.4172C17.4181 7.28302 17.0929 8.64943 16.4681 9.88617C15.8432 11.1229 14.9362 12.1953 13.8202 13.0167L16.303 17.3181C16.5636 17.7694 16.6342 18.3058 16.4993 18.8092C16.3644 19.3125 16.0351 19.7417 15.5838 20.0023L12.1185 14.0011C11.0008 14.4892 9.7942 14.7407 8.57458 14.74C7.35496 14.7407 6.14837 14.4892 5.03066 14.0011L1.56534 20.0023C1.11403 19.7417 0.784716 19.3125 0.649841 18.8092C0.514966 18.3058 0.585578 17.7694 0.846144 17.3181L5.82158 8.70147C5.32538 8.21366 4.96751 7.60291 4.78451 6.93158C4.60152 6.26024 4.59995 5.55237 4.77997 4.88023C4.96 4.20809 5.31516 3.59576 5.8092 3.10576C6.30325 2.61576 6.91847 2.26563 7.59207 2.09114V0.00231934H9.55709V2.09114C10.2308 2.26551 10.8461 2.61554 11.3403 3.10548C11.8344 3.59543 12.1897 4.20774 12.3698 4.8799C12.5499 5.55206 12.5485 6.25998 12.3655 6.93138C12.1826 7.60277 11.8248 8.2136 11.3286 8.70147L12.8289 11.3012ZM11.1291 12.2847L9.62783 9.68497C8.93936 9.87629 8.21176 9.87629 7.52329 9.68497L6.02201 12.2847C6.83428 12.609 7.70095 12.7754 8.57556 12.775C9.45017 12.7754 10.3168 12.609 11.1291 12.2847ZM8.57458 7.86241C9.09573 7.86241 9.59554 7.65538 9.96406 7.28687C10.3326 6.91835 10.5396 6.41854 10.5396 5.89739C10.5396 5.37623 10.3326 4.87642 9.96406 4.50791C9.59554 4.13939 9.09573 3.93236 8.57458 3.93236C8.05342 3.93236 7.55361 4.13939 7.1851 4.50791C6.81658 4.87642 6.60956 5.37623 6.60956 5.89739C6.60956 6.41854 6.81658 6.91835 7.1851 7.28687C7.55361 7.65538 8.05342 7.86241 8.57458 7.86241Z" fill="black"/>
</svg>
