<svg width="24" height="24" viewBox="0 0 24 24" fill="none" xmlns="http://www.w3.org/2000/svg">
<path d="M22.2857 6.17186H20.3657C20.9143 5.51357 21.2571 4.69071 21.2571 3.77186C21.2571 1.68728 19.5703 0.000427246 17.4857 0.000427246C15.1817 0.000427246 13.152 1.221 12 3.03128C11.4142 2.10559 10.6044 1.34256 9.64558 0.812794C8.68673 0.283026 7.60975 0.00362173 6.51429 0.000427246C4.42971 0.000427246 2.74286 1.68728 2.74286 3.77186C2.74286 4.69071 3.08571 5.51357 3.63429 6.17186H1.71429C0.768 6.17186 0 6.93986 0 7.88614V11.3147C0 12.1376 0.589714 12.7959 1.37143 12.9604V22.2861C1.37143 23.2324 2.13943 24.0004 3.08571 24.0004H20.9143C21.8606 24.0004 22.6286 23.2324 22.6286 22.2861V12.9604C23.4103 12.7959 24 12.1376 24 11.3147V7.88614C24 6.93986 23.232 6.17186 22.2857 6.17186ZM21.9429 10.9719H13.0286V8.229H21.9429V10.9719ZM17.4857 2.05757C17.9404 2.05757 18.3764 2.23818 18.6979 2.55967C19.0194 2.88116 19.2 3.3172 19.2 3.77186C19.2 4.22651 19.0194 4.66255 18.6979 4.98404C18.3764 5.30553 17.9404 5.48614 17.4857 5.48614H13.152C13.6183 3.525 15.3874 2.05757 17.4857 2.05757ZM6.51429 2.05757C8.61257 2.05757 10.3817 3.525 10.848 5.48614H6.51429C6.05963 5.48614 5.62359 5.30553 5.3021 4.98404C4.98061 4.66255 4.8 4.22651 4.8 3.77186C4.8 3.3172 4.98061 2.88116 5.3021 2.55967C5.62359 2.23818 6.05963 2.05757 6.51429 2.05757ZM2.05714 8.229H10.9714V10.9719H2.05714V8.229ZM3.42857 13.029H10.9714V21.9433H3.42857V13.029ZM20.5714 21.9433H13.0286V13.029H20.5714V21.9433Z" fill="black"/>
</svg>
