<svg width="8" height="12" viewBox="0 0 8 12" fill="none" xmlns="http://www.w3.org/2000/svg">
<path id="?" d="M3.17052 8.39792C3.17052 8.04792 3.19152 7.73058 3.23352 7.44592C3.28018 7.15658 3.37818 6.87658 3.52752 6.60592C3.66285 6.34458 3.82385 6.13225 4.01052 5.96892C4.19718 5.80092 4.39785 5.63992 4.61252 5.48592C4.82718 5.33192 5.03952 5.14292 5.24952 4.91892C5.43618 4.70892 5.55985 4.49892 5.62052 4.28892C5.68118 4.07425 5.71152 3.84792 5.71152 3.60992C5.71152 3.39992 5.68585 3.21092 5.63452 3.04292C5.58785 2.87025 5.50852 2.72325 5.39652 2.60192C5.22852 2.39192 5.01852 2.24725 4.76652 2.16792C4.51918 2.08858 4.26018 2.04892 3.98952 2.04892C3.73285 2.04892 3.49018 2.08392 3.26152 2.15392C3.03752 2.22392 2.85085 2.33358 2.70152 2.48292C2.55218 2.61825 2.44252 2.78392 2.37252 2.97992C2.30252 3.17125 2.26752 3.37892 2.26752 3.60292H0.965515C0.993515 3.19692 1.08918 2.81192 1.25252 2.44792C1.42052 2.07925 1.65152 1.77592 1.94552 1.53792C2.22085 1.30458 2.53585 1.13425 2.89052 1.02692C3.24518 0.914917 3.60218 0.858917 3.96152 0.858917C4.43752 0.858917 4.88785 0.931251 5.31252 1.07592C5.74185 1.22058 6.09885 1.46092 6.38352 1.79692C6.60285 2.03492 6.76618 2.30792 6.87352 2.61592C6.98085 2.92392 7.03452 3.24825 7.03452 3.58892C7.03452 4.00425 6.95052 4.39158 6.78252 4.75092C6.61918 5.11025 6.39752 5.43458 6.11752 5.72392C5.96352 5.89192 5.79552 6.04592 5.61352 6.18592C5.43618 6.32592 5.26585 6.46592 5.10252 6.60592C4.94385 6.74592 4.81785 6.89992 4.72452 7.06792C4.60318 7.28725 4.53318 7.49025 4.51452 7.67692C4.50052 7.85892 4.49352 8.09925 4.49352 8.39792H3.17052ZM3.17752 11.1419V9.60892H4.49352V11.1419H3.17752Z" fill="black"/>
</svg>
