<svg width="14" height="14" viewBox="0 0 14 14" fill="none" xmlns="http://www.w3.org/2000/svg">
<path id="Vector" d="M13.0166 12.9969L8.79196 8.79555M13.0166 12.9969C13.2158 12.8002 13.0683 11.1722 13.0535 10.1394M13.0166 12.9969C12.8175 13.1936 11.8892 13.0608 10.1789 12.9735M0.983174 1.00399L5.20786 5.20531M0.983174 1.00399C0.783989 1.20071 0.931534 2.82862 0.946288 3.86143M0.983174 1.00399C1.18236 0.80726 2.11066 0.94005 3.82094 1.02735M13.0093 1.00522L8.78458 5.20531M13.0093 1.00522C12.8113 0.80603 11.1736 0.953574 10.1358 0.968329M13.0093 1.00522C13.206 1.20194 13.0732 2.12655 12.9859 3.827M8.78089 7.06806C8.78089 8.00176 8.01957 8.75867 7.08044 8.75867C6.14131 8.75867 5.38 8.00176 5.38 7.06806C5.38 6.13436 6.14131 5.37744 7.08044 5.37744C8.01957 5.37744 8.78089 6.13436 8.78089 7.06806Z" stroke="white" stroke-width="1.2" stroke-linecap="round" stroke-linejoin="round"/>
</svg>
