<svg width="24" height="8" viewBox="0 0 24 8" fill="none" xmlns="http://www.w3.org/2000/svg">
<path d="M9.112 0.185669L5.97 7.68167H3.92L2.374 1.69867C2.28 1.33067 2.199 1.19567 1.913 1.04067C1.447 0.787668 0.677 0.550669 0 0.402669L0.046 0.185669H3.346C3.56165 0.185453 3.77027 0.262333 3.93421 0.402433C4.09815 0.542533 4.2066 0.736623 4.24 0.949669L5.057 5.28767L7.075 0.185669H9.112ZM17.145 5.23467C17.153 3.25567 14.409 3.14667 14.428 2.26267C14.434 1.99367 14.69 1.70767 15.25 1.63467C15.9063 1.57234 16.5672 1.68843 17.163 1.97067L17.503 0.380669C16.923 0.162469 16.3087 0.049695 15.689 0.0476685C13.772 0.0476685 12.423 1.06767 12.411 2.52667C12.399 3.60567 13.374 4.20667 14.109 4.56667C14.865 4.93367 15.119 5.16967 15.115 5.49767C15.11 6.00167 14.513 6.22267 13.955 6.23167C12.98 6.24667 12.415 5.96867 11.963 5.75867L11.612 7.40067C12.065 7.60867 12.901 7.79067 13.768 7.79867C15.805 7.79867 17.138 6.79267 17.145 5.23467ZM22.206 7.68167H24L22.435 0.185669H20.779C20.602 0.183618 20.4284 0.235011 20.2811 0.333133C20.1337 0.431255 20.0194 0.571543 19.953 0.735669L17.044 7.68167H19.08L19.485 6.56167H21.973L22.206 7.68167ZM20.043 5.02567L21.063 2.21067L21.651 5.02567H20.043ZM11.883 0.185669L10.28 7.68167H8.34L9.945 0.185669H11.883Z" fill="black"/>
</svg>
