<svg width="31" height="10" viewBox="0 0 31 10" fill="none" xmlns="http://www.w3.org/2000/svg">
<path d="M11.7559 0.178469L7.70223 9.84948H5.05741L3.06283 2.13047C2.94156 1.6557 2.83705 1.48153 2.46807 1.28155C1.86686 0.955143 0.873436 0.649376 0 0.458433L0.0593472 0.178469H4.31686C4.59508 0.17819 4.86424 0.277378 5.07574 0.458129C5.28725 0.63888 5.42717 0.889286 5.47026 1.16415L6.52432 6.76085L9.12785 0.178469H11.7559ZM22.1197 6.69247C22.13 4.13925 18.5899 3.99862 18.6144 2.85812C18.6221 2.51107 18.9524 2.14209 19.6749 2.04791C20.5216 1.96749 21.3743 2.11726 22.1429 2.4814L22.5816 0.430049C21.8333 0.148537 21.0407 0.00304182 20.2413 0.000427246C17.768 0.000427246 16.0276 1.31639 16.0121 3.19872C15.9966 4.5908 17.2545 5.36619 18.2028 5.83064C19.1782 6.30413 19.5059 6.60861 19.5007 7.03178C19.4943 7.68202 18.724 7.96714 18.0041 7.97875C16.7462 7.9981 16.0173 7.63944 15.4341 7.36851L14.9813 9.48695C15.5657 9.7553 16.6443 9.99011 17.7629 10.0004C20.3909 10.0004 22.1107 8.70253 22.1197 6.69247ZM28.6492 9.84948H30.9637L28.9446 0.178469H26.8082C26.5798 0.175823 26.3559 0.242128 26.1658 0.368721C25.9756 0.495313 25.8281 0.676308 25.7425 0.888055L21.9894 9.84948H24.6162L25.1387 8.4045H28.3486L28.6492 9.84948ZM25.8586 6.42282L27.1746 2.79103L27.9332 6.42282H25.8586ZM15.3309 0.178469L13.2628 9.84948H10.7599L12.8306 0.178469H15.3309Z" fill="black"/>
</svg>
