<svg width="41" height="40" viewBox="0 0 41 40" fill="none" xmlns="http://www.w3.org/2000/svg">
<rect x="0.5" y="0.000427246" width="40.0004" height="40.0004" rx="9.6001" fill="white"/>
<path d="M24.8302 21.4974C25.6628 20.8429 26.3358 20.0076 26.7984 19.0548C27.2609 18.102 27.5009 17.0566 27.5002 15.9974H29.5002C29.5011 17.4077 29.1701 18.7985 28.5342 20.0572C27.8982 21.316 26.975 22.4075 25.8392 23.2434L28.3662 27.6214C28.6314 28.0808 28.7032 28.6267 28.566 29.139C28.4287 29.6514 28.0935 30.0882 27.6342 30.3534L24.1072 24.2454C22.9695 24.7422 21.7415 24.9982 20.5002 24.9974C19.2588 24.9982 18.0308 24.7422 16.8932 24.2454L13.3662 30.3534C12.9068 30.0882 12.5716 29.6514 12.4344 29.139C12.2971 28.6267 12.369 28.0808 12.6342 27.6214L17.6982 18.8514C17.1931 18.3549 16.8289 17.7333 16.6426 17.05C16.4564 16.3667 16.4548 15.6463 16.638 14.9622C16.8212 14.2781 17.1827 13.6548 17.6856 13.1561C18.1884 12.6574 18.8146 12.301 19.5002 12.1234V9.99744H21.5002V12.1234C22.1858 12.3009 22.8121 12.6572 23.3151 13.1558C23.818 13.6545 24.1796 14.2777 24.363 14.9618C24.5463 15.646 24.5448 16.3665 24.3586 17.0498C24.1724 17.7332 23.8082 18.3549 23.3032 18.8514L24.8302 21.4974ZM23.1002 22.4984L21.5722 19.8524C20.8714 20.0472 20.1309 20.0472 19.4302 19.8524L17.9022 22.4984C18.7289 22.8285 19.611 22.9979 20.5012 22.9974C21.3913 22.9979 22.2734 22.8285 23.1002 22.4984ZM20.5002 17.9974C21.0306 17.9974 21.5393 17.7867 21.9144 17.4117C22.2894 17.0366 22.5002 16.5279 22.5002 15.9974C22.5002 15.467 22.2894 14.9583 21.9144 14.5832C21.5393 14.2082 21.0306 13.9974 20.5002 13.9974C19.9697 13.9974 19.461 14.2082 19.0859 14.5832C18.7109 14.9583 18.5002 15.467 18.5002 15.9974C18.5002 16.5279 18.7109 17.0366 19.0859 17.4117C19.461 17.7867 19.9697 17.9974 20.5002 17.9974Z" fill="black"/>
</svg>
