<svg width="40" height="40" viewBox="0 0 40 40" fill="none" xmlns="http://www.w3.org/2000/svg">
<g id="Frame 33">
<rect y="-0.000213623" width="40.0004" height="40.0004" rx="9.6001" fill="black"/>
<path id="Vector" d="M24.33 21.4968C25.1627 20.8422 25.8357 20.007 26.2982 19.0542C26.7608 18.1014 27.0008 17.0559 27 15.9968H29C29.0009 17.4071 28.67 18.7978 28.034 20.0566C27.3981 21.3153 26.4748 22.4068 25.339 23.2428L27.866 27.6208C28.1312 28.0801 28.2031 28.626 28.0658 29.1384C27.9286 29.6507 27.5934 30.0876 27.134 30.3528L23.607 24.2448C22.4694 24.7415 21.2414 24.9976 20 24.9968C18.7587 24.9976 17.5306 24.7415 16.393 24.2448L12.866 30.3528C12.4067 30.0876 12.0715 29.6507 11.9342 29.1384C11.797 28.626 11.8688 28.0801 12.134 27.6208L17.198 18.8508C16.693 18.3543 16.3288 17.7327 16.1425 17.0494C15.9563 16.3661 15.9547 15.6456 16.1379 14.9615C16.3211 14.2774 16.6826 13.6542 17.1854 13.1555C17.6883 12.6567 18.3144 12.3004 19 12.1228V9.99679H21V12.1228C21.6857 12.3003 22.312 12.6565 22.8149 13.1552C23.3179 13.6539 23.6795 14.2771 23.8628 14.9612C24.0462 15.6453 24.0447 16.3658 23.8585 17.0492C23.6723 17.7325 23.3081 18.3542 22.803 18.8508L24.33 21.4968ZM22.6 22.4978L21.072 19.8518C20.3713 20.0465 19.6308 20.0465 18.93 19.8518L17.402 22.4978C18.2288 22.8279 19.1109 22.9972 20.001 22.9968C20.8912 22.9972 21.7733 22.8279 22.6 22.4978ZM20 17.9968C20.5305 17.9968 21.0392 17.7861 21.4142 17.411C21.7893 17.0359 22 16.5272 22 15.9968C22 15.4664 21.7893 14.9576 21.4142 14.5826C21.0392 14.2075 20.5305 13.9968 20 13.9968C19.4696 13.9968 18.9609 14.2075 18.5858 14.5826C18.2107 14.9576 18 15.4664 18 15.9968C18 16.5272 18.2107 17.0359 18.5858 17.411C18.9609 17.7861 19.4696 17.9968 20 17.9968Z" fill="white"/>
</g>
</svg>
