<svg width="18" height="18" viewBox="0 0 18 18" fill="none" xmlns="http://www.w3.org/2000/svg">
<path id="Vector" d="M0.522461 14.0822L1.93672 12.6759L3.07133 13.7945L3.91829 12.9556L2.78368 11.8289L3.91829 10.6943L5.89186 12.6759L6.73882 11.8289L4.76525 9.84737L5.89186 8.72075L7.02647 9.84737L7.87343 9.00041L6.73882 7.8738L7.87343 6.73919L9.847 8.72075L10.694 7.8738L8.72039 5.89223L9.847 4.76561L10.9736 5.89223L11.8286 5.04527L10.694 3.91865L11.8286 2.78405L13.7942 4.76561L14.6491 3.91865L12.6755 1.93709L14.0818 0.522827L17.4776 3.91865L3.91829 17.478L0.522461 14.0822Z" fill="white"/>
</svg>
