<svg width="16" height="14" viewBox="0 0 16 14" fill="none" xmlns="http://www.w3.org/2000/svg">
<g id="Vector">
<path d="M6.35147 9.98212L6.5 9.81872V9.01294L4.06641 3.87544H2.93359L0.5 9.01294V9.858L0.632312 10.0016C0.99572 10.3951 1.43655 10.7092 1.92713 10.9242C2.41771 11.1392 2.94744 11.2505 3.48306 11.251H3.49619C4.03402 11.2487 4.5655 11.1346 5.05699 10.9162C5.54848 10.6978 5.98927 10.3797 6.35147 9.98212ZM5.5 9.42569C4.96651 9.95559 4.24472 10.2524 3.49278 10.2511H3.48247C2.74376 10.2548 2.03266 9.97061 1.5 9.45878V9.23794L3.5 5.01569L5.5 9.23794V9.42569ZM13.0664 3.87544H11.9336L9.5 9.01294V9.858L9.63231 10.0016C9.99572 10.3951 10.4366 10.7092 10.9271 10.9242C11.4177 11.1392 11.9474 11.2505 12.4831 11.251H12.4962C13.034 11.2486 13.5655 11.1346 14.057 10.9162C14.5485 10.6978 14.9893 10.3797 15.3515 9.98206L15.5 9.81872V9.01294L13.0664 3.87544ZM14.5 9.42569C13.9665 9.95559 13.2447 10.2524 12.4928 10.2511H12.4825C11.7438 10.2548 11.0327 9.97061 10.5 9.45878V9.23794L12.5 5.01569L14.5 9.23794V9.42569Z" fill="white"/>
<path d="M8.5 4.05228C8.77815 3.96868 9.03124 3.81743 9.23662 3.61205C9.44199 3.40668 9.59324 3.15359 9.67684 2.87544H13V1.87544H9.67684C9.56922 1.51429 9.34788 1.19754 9.04574 0.972315C8.74361 0.74709 8.37684 0.625427 8 0.625427C7.62316 0.625427 7.25639 0.74709 6.95426 0.972315C6.65212 1.19754 6.43078 1.51429 6.32316 1.87544H3V2.87544H6.32316C6.40675 3.15359 6.55801 3.40668 6.76338 3.61205C6.96876 3.81743 7.22185 3.96868 7.5 4.05228V12.3754H4.25V13.3754H11.75V12.3754H8.5V4.05228ZM7.25 2.37544C7.25 2.2271 7.29399 2.08209 7.3764 1.95876C7.45881 1.83542 7.57594 1.73929 7.71299 1.68253C7.85003 1.62576 8.00083 1.61091 8.14632 1.63985C8.2918 1.66879 8.42544 1.74022 8.53033 1.84511C8.63522 1.94999 8.70665 2.08363 8.73559 2.22912C8.76453 2.3746 8.74967 2.5254 8.69291 2.66245C8.63614 2.79949 8.54001 2.91663 8.41668 2.99904C8.29334 3.08145 8.14834 3.12544 8 3.12544C7.80109 3.12544 7.61032 3.04642 7.46967 2.90577C7.32902 2.76511 7.25 2.57435 7.25 2.37544Z" fill="white"/>
</g>
</svg>
