<svg width="21" height="20" viewBox="0 0 21 20" fill="none" xmlns="http://www.w3.org/2000/svg">
<path d="M10.75 0.000488281C10.935 0.000488281 11.1125 0.0739931 11.2433 0.204832C11.3742 0.335672 11.4477 0.513128 11.4477 0.698163V1.6284C11.4477 1.81343 11.3742 1.99089 11.2433 2.12173C11.1125 2.25257 10.935 2.32607 10.75 2.32607C10.565 2.32607 10.3875 2.25257 10.2567 2.12173C10.1258 1.99089 10.0523 1.81343 10.0523 1.6284V0.698163C10.0523 0.513128 10.1258 0.335672 10.2567 0.204832C10.3875 0.0739931 10.565 0.000488281 10.75 0.000488281Z" fill="black"/>
<path fill-rule="evenodd" clip-rule="evenodd" d="M5.40116 10.0005C5.40116 8.58189 5.9647 7.22139 6.9678 6.21829C7.9709 5.21519 9.3314 4.65165 10.75 4.65165C12.1686 4.65165 13.5291 5.21519 14.5322 6.21829C15.5353 7.22139 16.0988 8.58189 16.0988 10.0005C16.0988 11.4191 15.5353 12.7796 14.5322 13.7827C13.5291 14.7858 12.1686 15.3493 10.75 15.3493C9.3314 15.3493 7.9709 14.7858 6.9678 13.7827C5.9647 12.7796 5.40116 11.4191 5.40116 10.0005ZM10.75 6.047C10.2308 6.047 9.71673 6.14926 9.23707 6.34794C8.75741 6.54662 8.32158 6.83783 7.95446 7.20495C7.58735 7.57206 7.29613 8.00789 7.09745 8.48755C6.89877 8.96721 6.79651 9.48131 6.79651 10.0005C6.79651 10.5197 6.89877 11.0338 7.09745 11.5134C7.29613 11.9931 7.58735 12.4289 7.95446 12.796C8.32158 13.1631 8.75741 13.4544 9.23707 13.653C9.71673 13.8517 10.2308 13.954 10.75 13.954C11.7985 13.954 12.8041 13.5375 13.5455 12.796C14.287 12.0546 14.7035 11.049 14.7035 10.0005C14.7035 8.95196 14.287 7.94637 13.5455 7.20495C12.8041 6.46353 11.7985 6.047 10.75 6.047Z" fill="black"/>
<path d="M4.66628 2.92979C4.53476 2.80264 4.35856 2.73223 4.17563 2.73374C3.9927 2.73524 3.81768 2.80853 3.68826 2.93783C3.55884 3.06712 3.48539 3.24207 3.48371 3.425C3.48204 3.60793 3.55228 3.78419 3.6793 3.91584L4.33698 4.57351C4.40085 4.64206 4.47787 4.69704 4.56345 4.73517C4.64903 4.7733 4.74142 4.7938 4.8351 4.79546C4.92877 4.79711 5.02182 4.77988 5.1087 4.74479C5.19557 4.7097 5.27448 4.65747 5.34073 4.59122C5.40698 4.52497 5.45921 4.44606 5.4943 4.35918C5.52939 4.27231 5.54662 4.17926 5.54497 4.08558C5.54332 3.99191 5.52281 3.89952 5.48468 3.81394C5.44655 3.72836 5.39157 3.65134 5.32302 3.58747L4.66628 2.92979ZM20.75 10.0005C20.75 10.1855 20.6765 10.363 20.5457 10.4938C20.4148 10.6247 20.2374 10.6982 20.0523 10.6982H19.1221C18.9371 10.6982 18.7596 10.6247 18.6288 10.4938C18.4979 10.363 18.4244 10.1855 18.4244 10.0005C18.4244 9.81545 18.4979 9.638 18.6288 9.50716C18.7596 9.37632 18.9371 9.30281 19.1221 9.30281H20.0523C20.2374 9.30281 20.4148 9.37632 20.5457 9.50716C20.6765 9.638 20.75 9.81545 20.75 10.0005ZM17.8207 3.91677C17.8874 3.85244 17.9405 3.77548 17.9772 3.69038C18.0138 3.60528 18.033 3.51374 18.0339 3.4211C18.0347 3.32847 18.0171 3.23659 17.9821 3.15083C17.9471 3.06507 17.8953 2.98715 17.8298 2.92162C17.7643 2.85608 17.6865 2.80424 17.6007 2.76912C17.515 2.734 17.4232 2.7163 17.3305 2.71706C17.2379 2.71782 17.1463 2.73703 17.0612 2.77355C16.976 2.81007 16.899 2.86319 16.8347 2.92979L16.177 3.58747C16.1084 3.65134 16.0535 3.72836 16.0153 3.81394C15.9772 3.89952 15.9567 3.99191 15.955 4.08558C15.9534 4.17926 15.9706 4.27231 16.0057 4.35918C16.0408 4.44606 16.093 4.52497 16.1593 4.59122C16.2255 4.65747 16.3044 4.7097 16.3913 4.74479C16.4782 4.77988 16.5712 4.79711 16.6649 4.79546C16.7586 4.7938 16.851 4.7733 16.9365 4.73517C17.0221 4.69704 17.0992 4.64206 17.163 4.57351L17.8207 3.91677ZM10.75 17.6749C10.935 17.6749 11.1125 17.7484 11.2433 17.8793C11.3742 18.0101 11.4477 18.1875 11.4477 18.3726V19.3028C11.4477 19.4878 11.3742 19.6653 11.2433 19.7961C11.1125 19.927 10.935 20.0005 10.75 20.0005C10.565 20.0005 10.3875 19.927 10.2567 19.7961C10.1258 19.6653 10.0523 19.4878 10.0523 19.3028V18.3726C10.0523 18.1875 10.1258 18.0101 10.2567 17.8793C10.3875 17.7484 10.565 17.6749 10.75 17.6749ZM17.163 15.4275C17.0992 15.3589 17.0221 15.3039 16.9365 15.2658C16.851 15.2277 16.7586 15.2072 16.6649 15.2055C16.5712 15.2039 16.4782 15.2211 16.3913 15.2562C16.3044 15.2913 16.2255 15.3435 16.1593 15.4098C16.093 15.476 16.0408 15.5549 16.0057 15.6418C15.9706 15.7287 15.9534 15.8217 15.955 15.9154C15.9567 16.0091 15.9772 16.1015 16.0153 16.187C16.0535 16.2726 16.1084 16.3496 16.177 16.4135L16.8347 17.0712C16.8985 17.1397 16.9755 17.1947 17.0611 17.2328C17.1467 17.271 17.2391 17.2915 17.3328 17.2931C17.4264 17.2948 17.5195 17.2776 17.6064 17.2425C17.6932 17.2074 17.7722 17.1551 17.8384 17.0889C17.9047 17.0226 17.9569 16.9437 17.992 16.8569C18.0271 16.77 18.0443 16.6769 18.0426 16.5833C18.041 16.4896 18.0205 16.3972 17.9824 16.3116C17.9442 16.226 17.8892 16.149 17.8207 16.0851L17.163 15.4275ZM3.07558 10.0005C3.07558 10.1855 3.00208 10.363 2.87124 10.4938C2.7404 10.6247 2.56294 10.6982 2.37791 10.6982H1.44767C1.26264 10.6982 1.08518 10.6247 0.954344 10.4938C0.823505 10.363 0.75 10.1855 0.75 10.0005C0.75 9.81545 0.823505 9.638 0.954344 9.50716C1.08518 9.37632 1.26264 9.30281 1.44767 9.30281H2.37791C2.56294 9.30281 2.7404 9.37632 2.87124 9.50716C3.00208 9.638 3.07558 9.81545 3.07558 10.0005ZM5.32302 16.4135C5.44626 16.2813 5.51335 16.1063 5.51016 15.9256C5.50697 15.7448 5.43375 15.5724 5.30593 15.4446C5.1781 15.3167 5.00565 15.2435 4.8249 15.2403C4.64416 15.2371 4.46923 15.3042 4.33698 15.4275L3.6793 16.0851C3.55607 16.2174 3.48897 16.3923 3.49216 16.5731C3.49535 16.7538 3.56857 16.9263 3.6964 17.0541C3.82422 17.1819 3.99668 17.2551 4.17742 17.2583C4.35817 17.2615 4.53309 17.1944 4.66535 17.0712L5.32302 16.4135Z" fill="black"/>
</svg>
