<svg width="16" height="16" viewBox="0 0 16 16" fill="none" xmlns="http://www.w3.org/2000/svg">
<path d="M1 13.2502H0.25H1ZM4.5 9.75021V9.00021V9.75021ZM11.5 9.75021V9.00021V9.75021ZM1 13.2502H1.75C1.75 12.5209 2.03973 11.8214 2.55546 11.3057L2.02513 10.7753L1.4948 10.245C0.697766 11.042 0.25 12.123 0.25 13.2502H1ZM2.02513 10.7753L2.55546 11.3057C3.07118 10.7899 3.77065 10.5002 4.5 10.5002V9.75021V9.00021C3.37283 9.00021 2.29183 9.44798 1.4948 10.245L2.02513 10.7753ZM4.5 9.75021V10.5002H11.5V9.75021V9.00021H4.5V9.75021ZM11.5 9.75021V10.5002C12.2293 10.5002 12.9288 10.7899 13.4445 11.3057L13.9749 10.7753L14.5052 10.245C13.7082 9.44798 12.6272 9.00021 11.5 9.00021V9.75021ZM13.9749 10.7753L13.4445 11.3057C13.9603 11.8214 14.25 12.5209 14.25 13.2502H15H15.75C15.75 12.123 15.3022 11.042 14.5052 10.245L13.9749 10.7753ZM15 13.2502H14.25C14.25 13.5154 14.1446 13.7698 13.9571 13.9573L14.4874 14.4876L15.0178 15.018C15.4866 14.5491 15.75 13.9133 15.75 13.2502H15ZM14.4874 14.4876L13.9571 13.9573C13.7696 14.1449 13.5152 14.2502 13.25 14.2502V15.0002V15.7502C13.913 15.7502 14.5489 15.4868 15.0178 15.018L14.4874 14.4876ZM13.25 15.0002V14.2502H2.75V15.0002V15.7502H13.25V15.0002ZM2.75 15.0002V14.2502C2.48478 14.2502 2.23043 14.1449 2.04289 13.9573L1.51256 14.4876L0.982233 15.018C1.45107 15.4868 2.08696 15.7502 2.75 15.7502V15.0002ZM1.51256 14.4876L2.04289 13.9573C1.85536 13.7698 1.75 13.5154 1.75 13.2502H1H0.25C0.25 13.9133 0.513392 14.5491 0.982233 15.018L1.51256 14.4876ZM10.625 3.62521H9.875C9.875 4.66075 9.03553 5.50021 8 5.50021V6.25021V7.00021C9.86396 7.00021 11.375 5.48917 11.375 3.62521H10.625ZM8 6.25021V5.50021C6.96447 5.50021 6.125 4.66075 6.125 3.62521H5.375H4.625C4.625 5.48917 6.13604 7.00021 8 7.00021V6.25021ZM5.375 3.62521H6.125C6.125 2.58968 6.96447 1.75021 8 1.75021V1.00021V0.250214C6.13604 0.250214 4.625 1.76125 4.625 3.62521H5.375ZM8 1.00021V1.75021C9.03553 1.75021 9.875 2.58968 9.875 3.62521H10.625H11.375C11.375 1.76125 9.86396 0.250214 8 0.250214V1.00021Z" fill="white"/>
</svg>
