<svg width="17" height="16" viewBox="0 0 17 16" fill="none" xmlns="http://www.w3.org/2000/svg">
<path d="M15.1337 8.00021C15.1337 9.82589 14.4085 11.5768 13.1175 12.8677C11.8266 14.1587 10.0757 14.8839 8.25 14.8839V16.0002C12.6682 16.0002 16.25 12.4184 16.25 8.00021H15.1337ZM8.25 14.8839C6.42432 14.8839 4.67342 14.1587 3.38247 12.8677C2.09153 11.5768 1.36628 9.82589 1.36628 8.00021H0.25C0.25 12.4184 3.83177 16.0002 8.25 16.0002V14.8839ZM1.36628 8.00021C1.36628 6.17454 2.09153 4.42364 3.38247 3.13269C4.67342 1.84174 6.42432 1.11649 8.25 1.11649V0.000213623C3.83177 0.000213623 0.25 3.58198 0.25 8.00021H1.36628ZM10.8547 9.67463C9.71977 9.67463 8.63137 9.2238 7.82889 8.42132C7.02641 7.61884 6.57558 6.53044 6.57558 5.39556H5.4593C5.4593 6.8265 6.02774 8.19883 7.03956 9.21065C8.05139 10.2225 9.42372 10.7909 10.8547 10.7909V9.67463ZM14.5198 7.60505C14.139 8.2366 13.6014 8.75902 12.9593 9.12164C12.3171 9.48425 11.5921 9.67474 10.8547 9.67463V10.7909C11.7844 10.7912 12.6985 10.5512 13.5082 10.0942C14.3179 9.63716 14.9958 8.97866 15.476 8.18254L14.5198 7.60505ZM6.57558 5.39556C6.57548 4.65809 6.76597 3.93311 7.12858 3.29095C7.49119 2.64879 8.01361 2.11124 8.64516 1.73045L8.06767 0.774911C7.27166 1.25512 6.61323 1.93287 6.15622 2.74243C5.69922 3.552 5.45916 4.46591 5.4593 5.39556H6.57558ZM8.25 1.11649C8.2126 1.11577 8.17572 1.10764 8.14148 1.09257C8.10725 1.07749 8.07634 1.05578 8.05056 1.02868C8.01918 0.997165 7.99793 0.956999 7.98953 0.91333C7.98656 0.89026 7.98805 0.823283 8.06767 0.774911L8.64516 1.73045C9.01949 1.50421 9.14005 1.0897 9.09614 0.763749C9.05 0.425144 8.78358 0.000213623 8.25 0.000213623V1.11649ZM15.476 8.18254C15.4269 8.26217 15.36 8.26366 15.3369 8.26068C15.2932 8.25228 15.253 8.23103 15.2215 8.19966C15.1944 8.17387 15.1727 8.14297 15.1576 8.10873C15.1426 8.0745 15.1344 8.03761 15.1337 8.00021H16.25C16.25 7.46663 15.8251 7.20021 15.4865 7.15407C15.1605 7.11017 14.746 7.23073 14.5198 7.60505L15.476 8.18254Z" fill="black"/>
</svg>
