<svg width="26" height="24" viewBox="0 0 26 24" fill="none" xmlns="http://www.w3.org/2000/svg">
<path d="M7.18275 21.1651L12.9997 17.6564L18.8167 21.2112L17.2932 14.5632L22.4177 10.1312L15.6774 9.53107L12.9997 3.25241L10.3221 9.48491L3.58175 10.0851L8.70625 14.5632L7.18275 21.1651ZM12.9997 19.8299L6.29635 23.8778C6.09937 23.9751 5.91655 24.0145 5.74789 23.996C5.58046 23.9763 5.41734 23.9184 5.25852 23.8224C5.09848 23.7239 4.97783 23.5848 4.89658 23.4051C4.81532 23.2253 4.80794 23.029 4.87442 22.816L6.6583 15.2262L0.758198 10.1109C0.591998 9.9755 0.482429 9.81361 0.429492 9.62525C0.376554 9.43689 0.388249 9.25653 0.464578 9.08418C0.540907 8.91182 0.642474 8.77025 0.769278 8.65945C0.897314 8.55234 1.06967 8.4797 1.28635 8.44154L9.07189 7.76197L12.1078 0.574741C12.1915 0.371608 12.3122 0.225105 12.4698 0.135234C12.6273 0.0453627 12.804 0.000427246 12.9997 0.000427246C13.1955 0.000427246 13.3728 0.0453627 13.5316 0.135234C13.6904 0.225105 13.8104 0.371608 13.8917 0.574741L16.9276 7.76197L24.7113 8.44154C24.9292 8.47847 25.1022 8.55172 25.2302 8.66129C25.3583 8.76963 25.4604 8.91059 25.5368 9.08418C25.6119 9.25653 25.6229 9.43689 25.57 9.62525C25.5171 9.81361 25.4075 9.9755 25.2413 10.1109L19.3412 15.2262L21.1251 22.816C21.194 23.0265 21.1873 23.2223 21.1048 23.4032C21.0223 23.5842 20.901 23.7233 20.741 23.8206C20.5834 23.9191 20.4203 23.9775 20.2516 23.996C20.0842 24.0145 19.902 23.9751 19.705 23.8778L12.9997 19.8299Z" fill="black"/>
</svg>
