<svg width="16" height="20" viewBox="0 0 16 20" fill="none" xmlns="http://www.w3.org/2000/svg">
<g id="Group 1">
<rect id="Rectangle 1" x="0.321289" y="9.34921" width="15.3574" height="1.14608" rx="0.573039" fill="white"/>
<g id="Vector">
<path d="M3.48302 3.89277C3.81043 3.89277 4.07585 3.62735 4.07585 3.29994C4.07585 2.97253 3.81043 2.70712 3.48302 2.70712C3.15562 2.70712 2.8902 2.97253 2.8902 3.29994C2.8902 3.62735 3.15562 3.89277 3.48302 3.89277Z" fill="white"/>
<path d="M3.48302 0.335815C2.64993 0.335774 1.85048 0.664541 1.25844 1.25066C0.666404 1.83678 0.32962 2.63288 0.321289 3.46593C0.321289 5.63172 3.10757 8.04254 3.22613 8.1453C3.29772 8.20653 3.38882 8.24018 3.48302 8.24018C3.57722 8.24018 3.66833 8.20653 3.73991 8.1453C3.87824 8.04254 6.64476 5.63172 6.64476 3.46593C6.63643 2.63288 6.29964 1.83678 5.7076 1.25066C5.11556 0.664541 4.31612 0.335774 3.48302 0.335815ZM3.48302 4.6832C3.20944 4.6832 2.942 4.60207 2.71453 4.45008C2.48705 4.29809 2.30975 4.08205 2.20506 3.82929C2.10036 3.57653 2.07297 3.29841 2.12634 3.03008C2.17972 2.76176 2.31146 2.51528 2.50491 2.32183C2.69836 2.12838 2.94484 1.99664 3.21316 1.94326C3.48149 1.88989 3.75962 1.91728 4.01237 2.02198C4.26513 2.12667 4.48117 2.30397 4.63316 2.53144C4.78516 2.75892 4.86628 3.02636 4.86628 3.29994C4.86628 3.66681 4.72055 4.01864 4.46114 4.27805C4.20172 4.53747 3.84989 4.6832 3.48302 4.6832Z" fill="white"/>
</g>
<g id="Vector_2">
<path d="M12.517 16.1081C12.8444 16.1081 13.1098 16.3735 13.1098 16.7009C13.1098 17.0283 12.8444 17.2937 12.517 17.2937C12.1896 17.2937 11.9241 17.0283 11.9241 16.7009C11.9241 16.3735 12.1896 16.1081 12.517 16.1081Z" fill="white"/>
<path d="M12.517 19.665C11.6839 19.6651 10.8844 19.3363 10.2924 18.7502C9.70034 18.1641 9.36356 17.368 9.35522 16.5349C9.35522 14.3691 12.1415 11.9583 12.2601 11.8556C12.3317 11.7943 12.4228 11.7607 12.517 11.7607C12.6112 11.7607 12.7023 11.7943 12.7738 11.8556C12.9122 11.9583 15.6787 14.3691 15.6787 16.5349C15.6704 17.368 15.3336 18.1641 14.7415 18.7502C14.1495 19.3363 13.3501 19.6651 12.517 19.665ZM12.517 15.3177C12.2434 15.3177 11.9759 15.3988 11.7485 15.5508C11.521 15.7028 11.3437 15.9188 11.239 16.1716C11.1343 16.4243 11.1069 16.7024 11.1603 16.9708C11.2137 17.2391 11.3454 17.4856 11.5388 17.679C11.7323 17.8725 11.9788 18.0042 12.2471 18.0576C12.5154 18.111 12.7936 18.0836 13.0463 17.9789C13.2991 17.8742 13.5151 17.6969 13.6671 17.4694C13.8191 17.2419 13.9002 16.9745 13.9002 16.7009C13.9002 16.334 13.7545 15.9822 13.4951 15.7228C13.2357 15.4634 12.8838 15.3177 12.517 15.3177Z" fill="white"/>
</g>
</g>
</svg>
